<mxfile host="app.diagrams.net" modified="2024-03-15T04:47:46.459Z" agent="Mozilla/5.0 (Windows NT 10.0; Win64; x64) AppleWebKit/537.36 (KHTML, like Gecko) Chrome/122.0.0.0 Safari/537.36" version="24.0.5" etag="Mkk1MsUyJ5woJTc04fYe" type="github">
  <diagram name="第 1 页" id="wJ-FVqo-nUvFWNCGbEWb">
    <mxGraphModel>
      <root>
        <mxCell id="0" />
        <mxCell id="1" parent="0" />
      </root>
    </mxGraphModel>
  </diagram>
</mxfile>
